<?xml version="1.0" encoding="UTF-8"?> <svg xmlns="http://www.w3.org/2000/svg" xmlns:xlink="http://www.w3.org/1999/xlink" id="Слой_1" data-name="Слой 1" viewBox="0 0 750.22 282.38"><defs><style>.cls-1{fill:url(#Безымянный_градиент_50);}.cls-2{fill:url(#Безымянный_градиент_50-2);}.cls-3{fill:url(#Безымянный_градиент_50-3);}.cls-4{fill:url(#Безымянный_градиент_50-4);}</style><linearGradient id="Безымянный_градиент_50" x1="363.39" y1="421.4" x2="194.71" y2="129.25" gradientUnits="userSpaceOnUse"><stop offset="0" stop-color="#39397e" stop-opacity="0.9"></stop><stop offset="1" stop-color="#120069"></stop></linearGradient><linearGradient id="Безымянный_градиент_50-2" x1="591.7" y1="387.7" x2="436.08" y2="118.15" xlink:href="#Безымянный_градиент_50"></linearGradient><linearGradient id="Безымянный_градиент_50-3" x1="827.03" y1="382.09" x2="684.29" y2="134.86" xlink:href="#Безымянный_градиент_50"></linearGradient><linearGradient id="Безымянный_градиент_50-4" x1="330.52" y1="354.04" x2="329.84" y2="352.87" xlink:href="#Безымянный_градиент_50"></linearGradient></defs><title>GBS_Logo2</title><path class="cls-1" d="M397.19,204.09a127.87,127.87,0,0,1,10.25,48.42h2.44c1.27,1.91,1,3.91,1,5.86q0,67,0,134c0,0.31,0,.63,0,0.94a0.86,0.86,0,0,1-1,1c-2.08,0-4.17,0-6.25,0h-21c-1.88,0-2.42-.37-3.07-2.16q-3.62-10.08-7.22-20.17c-0.88-2.47-1.79-4.93-2.75-7.56-1,.93-1.87,1.75-2.74,2.58a90.87,90.87,0,0,1-18.34,13.56c-13.3,7.55-27.66,12-42.67,14.42a216.49,216.49,0,0,1-68.23.51,160.16,160.16,0,0,1-34.66-9.35A148.27,148.27,0,0,1,177,373a129.22,129.22,0,0,1-22.39-18.16,131.65,131.65,0,0,1-22.27-30.28,136.18,136.18,0,0,1-14.15-41.24,166,166,0,0,1-1.78-40.64,141.48,141.48,0,0,1,5.89-31.55,130.47,130.47,0,0,1,17.33-35.91A125.61,125.61,0,0,1,161,151.4a135.27,135.27,0,0,1,29.07-19.08,156.93,156.93,0,0,1,24.76-9.62,175.31,175.31,0,0,1,35.63-6.45,225.83,225.83,0,0,1,38.86.33,193.25,193.25,0,0,1,31.87,5.6,160.67,160.67,0,0,1,25.94,9.17,122.28,122.28,0,0,1,23.44,13.93,95.11,95.11,0,0,1,20.93,21.88,79.24,79.24,0,0,1,13.4,35.5c0.13,1.07-.14,1.41-1.2,1.37-1.69-.07-3.38,0-5.07,0C398.21,204,397.8,204.05,397.19,204.09ZM255.31,172.36a313.69,313.69,0,0,0-7.06,46.9,142.71,142.71,0,0,0,63.84-.47A310.33,310.33,0,0,0,304.75,171,96,96,0,0,1,255.31,172.36ZM304.89,336.9a314.11,314.11,0,0,0,7.27-48.05c-3.24-.42-6.33-1-9.44-1.18-4.59-.2-9.19-0.05-13.79-0.05a2.88,2.88,0,0,1-2.89-2.2,142.09,142.09,0,0,0-37.84,3.2,316.92,316.92,0,0,0,7,46.91A96.43,96.43,0,0,1,304.89,336.9ZM177.56,323.69A148,148,0,0,1,202.7,304a189.38,189.38,0,0,1-6.45-48.16c-0.3,0-.49-0.08-0.68-0.08q-17.86,0-35.72,0a0.9,0.9,0,0,0-1.09,1.1c0.1,3.22.09,6.45,0.27,9.66,1,17.29,4.88,33.8,13.46,49C174.05,318.22,175.81,320.86,177.56,323.69Zm226.84-71.2c0-.46.07-0.81,0-1.15-0.17-2.94-.29-5.88-0.55-8.81a122.73,122.73,0,0,0-9.39-37.16,1.91,1.91,0,0,0-2.08-1.38c-9.15,0-18.31,0-27.47,0a2,2,0,0,1-1.22-.17c-0.38-.84-1.45-1.27-1.37-2.39a7.73,7.73,0,0,0-.27-1.72c-2.56,1.64-4.95,3.23-7.4,4.7a1.17,1.17,0,0,0-.61,1.59A182.27,182.27,0,0,1,360,247c0.05,1.79,0,3.59,0,5.44h44.36Zm-224-65.6c-0.31.37-.57,0.65-0.8,1a98,98,0,0,0-14.93,29,126.77,126.77,0,0,0-5.84,34.52c0,1.14.27,1.47,1.42,1.47,11.59,0,23.18,0,34.77,0,0.38,0,.76,0,1.41-0.07,0-2.5-.09-4.93,0-7.35A182.17,182.17,0,0,1,202.63,205a1.2,1.2,0,0,0-.66-1.59,139.72,139.72,0,0,1-17.87-13.25ZM312.5,221.75a147.27,147.27,0,0,1-64.66.47l-1.13,30.67,67-.37ZM245.1,289.4a7.21,7.21,0,0,0-.73.12A142.34,142.34,0,0,0,207,304.8a1.06,1.06,0,0,0-.62,1.46,139.25,139.25,0,0,0,17.73,38.55c0.67,1,1.38,2,2.12,3A95.38,95.38,0,0,1,252,336.34c-1.38-7.87-2.9-15.57-4-23.33S246.06,297.36,245.1,289.4ZM226.63,160.2c-0.46.63-.86,1.16-1.24,1.71a137.64,137.64,0,0,0-18.72,39.51,1.31,1.31,0,0,0,.74,1.84,143.07,143.07,0,0,0,30.13,13.18c2.54,0.78,5.12,1.44,7.79,2.18a320.65,320.65,0,0,1,7.11-47A95.42,95.42,0,0,1,226.63,160.2Zm-21.12,45.37a185.88,185.88,0,0,0-6.32,47.14h44.56l1.17-31.18A144.84,144.84,0,0,1,205.51,205.57Zm-0.16,96.8a145,145,0,0,1,39.54-16l-1.13-30.51H199.19A187,187,0,0,0,205.35,302.37Zm124.34,46.1c0.3-.4.53-0.67,0.73-1,9.24-12.87,15.49-27.15,19.92-42.29a1,1,0,0,0-.73-1.32A141.6,141.6,0,0,0,317,290.35c-0.62-.17-1.25-0.31-1.93-0.48a317.82,317.82,0,0,1-7.32,47.94A96.24,96.24,0,0,1,329.69,348.47ZM307.6,170.21A315.57,315.57,0,0,1,315,218c0.42-.1.73-0.16,1-0.24a142.93,142.93,0,0,0,33.25-13.56,1.36,1.36,0,0,0,.79-1.91A140.82,140.82,0,0,0,339,175c-2.59-4.7-5.56-9.19-8.44-13.73-1-1.51-1.29-1.42-2.76-.64-4.32,2.3-8.65,4.62-13,6.77C312.48,168.49,310,169.26,307.6,170.21Zm43.62,36.39c-2.64,1.38-5.15,2.74-7.71,4a141,141,0,0,1-27.41,10.22,0.91,0.91,0,0,0-.84,1.12q0.6,12.71,1.1,25.42c0.07,1.71,0,3.42,0,5.11h40.86A185.13,185.13,0,0,0,351.22,206.59ZM304.33,339.83a92.8,92.8,0,0,0-48.48-1.4c0.55,2,1,3.94,1.58,5.81a109.63,109.63,0,0,0,7.32,19.46,1.7,1.7,0,0,0,1.15.88,215.43,215.43,0,0,0,29.28-1.68,1.58,1.58,0,0,0,1.44-1.12c1-2.59,2.24-5.11,3.14-7.74C301.36,349.37,302.79,344.65,304.33,339.83ZM247.8,285.67a147.85,147.85,0,0,1,38.3-3.24V255.79H246.73Zm-24.06,63.76a124.92,124.92,0,0,1-11.85-20.28A157.76,157.76,0,0,1,203.54,307a142.62,142.62,0,0,0-24.07,19c0.27,0.36.47,0.65,0.68,0.93a89.9,89.9,0,0,0,18.48,17.72,97.55,97.55,0,0,0,17.14,9.8,1.61,1.61,0,0,0,1.27.11C219.28,352.91,221.46,351.19,223.74,349.43Zm32-180A93,93,0,0,0,304,168.17a7.06,7.06,0,0,0-.14-0.85c-1.58-4.93-3.18-9.85-4.72-14.79a2.37,2.37,0,0,0-2.23-1.82,195.4,195.4,0,0,0-31.51-1.81c-3.14.05-2.37-.32-3.57,2.49-0.25.58-.49,1.16-0.68,1.76C259.34,158.5,257.59,163.86,255.78,169.43ZM203.72,201c4.62-15.31,11-29.54,20.33-42.33-1.33-1.51-2.72-1.95-4.58-.94-2.14,1.15-4.44,2-6.64,3A90.84,90.84,0,0,0,185.29,181c-1,1.09-2,2.21-3,3.41A140.76,140.76,0,0,0,203.72,201ZM332.19,350.16a10.63,10.63,0,0,1,1.3,1c0.85,0.88,1.66.77,2.72,0.27a116.22,116.22,0,0,0,15.11-8.64A102.29,102.29,0,0,0,368,328.43a3.34,3.34,0,0,0,1-2.59c-0.08-2.47-.06-5,0-7.43a2,2,0,0,0-.88-1.88c-4.72-3.31-9.43-6.66-14.14-10a7.39,7.39,0,0,0-.87-0.45C348.53,321.94,342,336.75,332.19,350.16Zm-104.39.27c3.53,3.74,6.88,7.32,10.3,10.83a3.26,3.26,0,0,0,1.78.75c4.85,0.73,9.7,1.46,14.57,2.06,2.35,0.29,4.74.31,7.09,0.45-1.64-4.27-3.34-8.36-4.77-12.54s-2.58-8.45-3.89-12.78A91.63,91.63,0,0,0,227.8,350.42Zm31.35-201.2c-0.38,0-.8,0-1.22,0a159.81,159.81,0,0,0-23.4,3.57c-3.08.65-4.3,3-6.1,5A90.93,90.93,0,0,0,253,168.67ZM328,350.9a91.44,91.44,0,0,0-20.72-10.11L300.11,362a0.42,0.42,0,0,0,.2,0,134.3,134.3,0,0,0,22.29-5.35,1.63,1.63,0,0,0,.68-0.41C324.82,354.55,326.32,352.8,328,350.9Zm8.55-187.08-0.35.31a145.5,145.5,0,0,1,16.89,37.95c2.74-1.83,5.37-3.55,7.93-5.35a1.52,1.52,0,0,0,.27-1.29A45.09,45.09,0,0,0,354,179.6a51.18,51.18,0,0,0-10-10.4C341.54,167.3,339,165.6,336.51,163.82Zm32.44,149.49c0-.35.07-0.53,0.07-0.71,0-8,0-16,0-23.94a0.9,0.9,0,0,0-1.11-1.06c-3.14,0-6.29,0-9.43,0a1.13,1.13,0,0,0-1.33,1.08c-0.93,4.46-1.89,8.91-2.93,13.34a1.24,1.24,0,0,0,.67,1.59q5.26,3.47,10.46,7C366.55,311.45,367.67,312.35,368.95,313.31Zm-49.69-25.62a158.41,158.41,0,0,1,32.17,13.83l3-13.83H319.26Zm6.47-129.27a106,106,0,0,0-23.66-6.8L307,167.2A90.45,90.45,0,0,0,325.73,158.42ZM220,356v0.41l12.46,4.1,0.09-.27-7.12-8.27Zm109.09-1.83,0.16,0.21,2.33-.93-1.24-.86Z" transform="translate(-115.92 -115.56)"></path><path class="cls-2" d="M434.37,119.14h1.4q48.46,0,96.93,0a154.16,154.16,0,0,1,32,3.06,104.26,104.26,0,0,1,26.08,9,67.76,67.76,0,0,1,22.06,17.37c9.22,11.31,13.79,24.36,14.35,38.88a63.87,63.87,0,0,1-4.87,28,57.18,57.18,0,0,1-19.52,24.06c-4,2.87-8.3,5.23-12.47,7.81-0.29.18-.6,0.35-1.1,0.64l5.21,1.79A67.56,67.56,0,0,1,617,262.6a60.44,60.44,0,0,1,12.67,15.1c8.45,14.22,11.07,29.64,9.71,45.93-0.85,10.21-3.13,20-7.82,29.2A63.21,63.21,0,0,1,612,375.54c-10.34,7.47-22,11.9-34.31,14.74a174.7,174.7,0,0,1-39.21,4q-50.7.07-101.41,0a2.39,2.39,0,0,1-2.65-2.69q0-135.48,0-271v-1.51Zm36.54,194.54q0,22,0,44.09c0,1.05.18,1.51,1.4,1.51q33.07-.06,66.14,0a119.79,119.79,0,0,0,26-2.62c7.89-1.75,15.37-4.43,22-9.2a35.65,35.65,0,0,0,13.5-18.24c3.2-9.86,3-19.87,1-29.91-2.15-10.56-8.29-18-17.82-22.8a64.08,64.08,0,0,0-15.1-5.26c-11.08-2.44-22.33-3.13-33.62-3.18-20.44-.09-40.87,0-61.31,0-2.1,0-2.1,0-2.1,2.06Q470.91,291.87,470.91,313.68Zm0-120q0,18.87,0,37.73c0,1.61,0,1.62,1.62,1.62h58a149.23,149.23,0,0,0,22.57-1.4c7.24-1.11,14.3-2.8,20.85-6.29A29.32,29.32,0,0,0,588.78,207a51.72,51.72,0,0,0,1.13-23.46c-1.61-9.56-6.54-16.77-15.27-21.25a60.48,60.48,0,0,0-14.51-5.17c-10.15-2.27-20.45-2.89-30.81-2.89h-56.6c-1.81,0-1.82,0-1.82,1.85Q470.91,174.84,470.91,193.65Z" transform="translate(-115.92 -115.56)"></path><path class="cls-3" d="M646.18,304.11h34.35a1.38,1.38,0,0,1,1.55,1c0.8,1.72.75,3.5,1,5.25a52.75,52.75,0,0,0,8.57,22.86,59.83,59.83,0,0,0,21.29,18.91,86.71,86.71,0,0,0,27.51,9,131.28,131.28,0,0,0,31.84,1.36c11.26-.9,22.25-3,32.51-8,7.78-3.77,14.41-8.91,19.2-16.23a35.86,35.86,0,0,0,5.75-20.56A37.7,37.7,0,0,0,826.51,302a26.34,26.34,0,0,0-7.58-9.34c-5.54-4.5-11.92-7.42-18.49-10-10.32-4-21-6.78-31.78-9.26-12-2.77-24.11-5.29-36.12-8.11a191,191,0,0,1-31.16-10.07c-8.54-3.63-16.67-8-23.81-14-8.28-6.94-14.6-15.31-18.21-25.62a72.91,72.91,0,0,1-3.69-26.22,66.05,66.05,0,0,1,3.05-18.66,69,69,0,0,1,16.56-27.36,79.88,79.88,0,0,1,22-15.8A112.74,112.74,0,0,1,727,117.9a158.58,158.58,0,0,1,39-1.91,137.5,137.5,0,0,1,33.62,6.17,95.63,95.63,0,0,1,27.2,13.5,77.37,77.37,0,0,1,24.8,29.72,81.59,81.59,0,0,1,7.69,31.75c0.07,1.49,0,1.53-1.46,1.53H825.37a2.55,2.55,0,0,1-2.6-2.41,51.87,51.87,0,0,0-7.21-21.85,41.34,41.34,0,0,0-13-12.93,64,64,0,0,0-24.74-9.07,130.66,130.66,0,0,0-48.3.87,57.21,57.21,0,0,0-22.93,10Q689.7,176,692.42,196.94a24.43,24.43,0,0,0,2.86,9.41c2.55,4.34,6.41,7.26,10.7,9.7,7.81,4.45,16.29,7.2,24.93,9.39,10.84,2.75,21.74,5.23,32.62,7.83q20.21,4.84,40,11.14c7.78,2.47,15.52,5.05,22.77,8.91a77.3,77.3,0,0,1,23.16,18.11c9.68,11.43,15.38,24.54,16.45,39.58a72.86,72.86,0,0,1-3.7,29.63A73.78,73.78,0,0,1,847,365.91a87.37,87.37,0,0,1-26,19.47,116.94,116.94,0,0,1-26.85,9.42c-14,3.15-28.2,3.49-42.46,2.75a156.87,156.87,0,0,1-37.93-6.36,114.58,114.58,0,0,1-22.36-9.38,85.54,85.54,0,0,1-31.76-30.06,89.18,89.18,0,0,1-9.53-21.84,103.9,103.9,0,0,1-3.91-24.6C646.16,305,646.18,304.62,646.18,304.11Z" transform="translate(-115.92 -115.56)"></path><path class="cls-4" d="M329.12,354.13l1.25-1.57,1.24,0.86-2.33.93Z" transform="translate(-115.92 -115.56)"></path></svg> 